<?xml version="1.0" encoding="UTF-8" standalone="no"?>
<svg
   xmlns:dc="http://purl.org/dc/elements/1.1/"
   xmlns:cc="http://creativecommons.org/ns#"
   xmlns:rdf="http://www.w3.org/1999/02/22-rdf-syntax-ns#"
   xmlns:svg="http://www.w3.org/2000/svg"
   xmlns="http://www.w3.org/2000/svg"
   viewBox="0 0 549.33331 150.66667"
   height="150.66667"
   width="549.33331"
   xml:space="preserve"
   id="svg2"
   version="1.1"><metadata
     id="metadata8"><rdf:RDF><cc:Work
         rdf:about=""><dc:format>image/svg+xml</dc:format><dc:type
           rdf:resource="http://purl.org/dc/dcmitype/StillImage" /></cc:Work></rdf:RDF></metadata><defs
     id="defs6" /><g
     transform="matrix(1.3333333,0,0,-1.3333333,0,150.66667)"
     id="g10"><g
       transform="scale(0.1)"
       id="g12"><path
         id="path14"
         style="fill:#e6e6e6;fill-opacity:1;fill-rule:evenodd;stroke:none"
         d="m 1385.9,80.1992 c -0.74,-10.039 -18.83,-19.4609 -54.26,-28.289 C 1295.82,43.0508 1246.37,35.3516 1183.2,28.7891 1119.69,21.8398 1046.17,16.4805 962.66,12.6211 879.102,9.17969 789.18,7.42188 692.969,7.42188 c -96.25,0 -186.168,1.95703 -269.688,5.77732 C 339.77,16.6797 266.211,21.8398 202.699,28.7891 139.531,35.3516 90.0781,43.0508 54.2617,51.9102 18.8711,60.7383 0.78125,70.1602 0,80.1992 c 0.78125,10 18.8711,19.4492 54.2617,28.2808 35.8164,8.821 85.2693,16.719 148.4373,23.668 63.512,6.563 137.071,11.762 220.582,15.622 83.52,3.832 173.438,5.781 269.688,5.781 96.211,0 186.133,-1.949 269.691,-5.781 83.51,-3.86 157.03,-9.059 220.54,-15.622 63.17,-6.949 112.62,-14.609 148.44,-23.089 35.43,-8.829 53.52,-18.5082 54.26,-28.8598" /><path
         id="path16"
         style="fill:#00abdc;fill-opacity:1;fill-rule:evenodd;stroke:none"
         d="m 822.301,979.84 c 13.828,0 28.289,-3.391 43.32,-10.352 20,-9.609 34.809,-25.039 44.457,-46.207 l 19.063,-42.73 c 5.781,-12.699 14.609,-24.61 26.558,-35.821 11.571,-11.14 25.242,-20.55 41.02,-28.281 20.041,-9.609 39.651,-14.418 58.871,-14.418 10.43,0 20.62,1.328 30.62,4.059 l 46.21,11.531 c 6.92,1.91 14.03,2.891 21.33,2.891 14.69,0 30.04,-3.871 46.21,-11.532 23.87,-11.21 41.17,-27.179 51.95,-47.96 l 24.3,-45.629 c 11.95,-21.563 14.26,-43.321 6.95,-65.231 -7.73,-22.351 -22.57,-36.762 -44.49,-43.32 l -48.51,-15 c -30.39,-9.262 -51.21,-29.07 -62.39,-59.539 -13.08,-33.86 -11.91,-68.082 3.48,-102.731 l 25.98,-57.769 c 11.56,-25.781 14.06,-53.321 7.54,-82.539 -11.57,-25.043 -29.65,-44.692 -54.34,-58.953 l -56.56,-21.911 c -12.74,-3.128 -25.04,-4.648 -36.96,-4.648 -17.301,0 -34.64,3.48 -51.949,10.43 -27.731,17.699 -46.801,40.59 -57.152,68.711 l -23.118,62.339 c -11.171,30.821 -11.371,58.168 -0.589,82.04 12.308,26.91 32.539,44.64 60.628,53.082 l 54.29,17.308 c 33.09,10.43 55.78,31.012 68.13,61.828 11.52,30.043 10,61.41 -4.61,94.102 l -22.5,49.07 c -14.26,31.25 -36.8,54.102 -67.579,68.789 -20.43,9.961 -40.621,14.961 -60.66,14.961 -10.352,-0.359 -20.981,-1.879 -31.762,-4.609 l -51.367,-12.699 c -9.613,-2.301 -19.063,-3.442 -28.281,-3.442 -16.211,0 -32.34,4.031 -48.512,12.07 -21.957,10.43 -37.348,27.579 -46.219,51.45 l -16.75,45.039 c -8.09,22.301 -6.719,41.953 4.059,58.902 10.781,16.918 26.172,27.309 46.172,31.18 3.48,0.777 6.718,1.359 9.839,1.719 l 49.649,9.839 c 3.48,1.09 6.332,1.871 8.641,2.301 5.031,1.18 10.031,1.68 15.031,1.68" /><path
         id="path18"
         style="fill:#003f66;fill-opacity:1;fill-rule:evenodd;stroke:none"
         d="m 568.789,921.559 c 14.652,0 29.492,-3.629 44.492,-11.008 21.168,-9.961 35.778,-26.332 43.867,-49.071 l 16.172,-45.621 c 11.559,-30.738 32.891,-54.097 64.102,-69.879 20,-9.609 40.43,-14.421 61.207,-14.421 12.312,-0.387 25.043,1.171 38.09,4.652 l 51.402,13.238 c 8.129,2.313 16.219,3.481 24.258,3.481 15.82,-0.391 31.762,-4.41 47.93,-12.149 25.043,-11.871 42.541,-29.019 52.541,-51.371 l 21.99,-49.68 c 10.78,-23.089 11.14,-46.57 1.14,-70.39 -10.39,-24.301 -27.89,-40.281 -52.582,-47.969 l -54.257,-16.762 c -36.563,-10.781 -62.539,-32.929 -77.969,-66.41 -8.082,-17.301 -12.301,-35.039 -12.652,-53.121 -0.43,-18.09 3.039,-37.539 10.351,-58.277 l 22.5,-63.012 c 10.039,-28.09 10.039,-58.277 0,-90.629 -18.832,-30.039 -41.961,-52.539 -69.262,-67.57 L 737.422,80.7813 C 725.121,77.6992 712.77,76.1289 700.43,76.1289 680.82,76.1289 661.801,80 643.281,87.6602 612.5,103.48 592.66,127.93 583.828,161.02 l -18.519,68.71 c -9.61,35.071 -5.739,65.469 11.57,91.29 16.562,30 39.492,49.449 68.711,58.281 l 61.211,19.679 c 40.078,12.661 68.16,35.75 84.328,69.258 8.48,17.352 13.48,34.852 15,52.543 1.141,18.09 -1.168,35.239 -6.91,51.41 L 779.57,624.73 c -11.519,31.559 -34.8,56.008 -69.879,73.36 -20.39,10 -41.371,15 -62.929,15 -13.09,0 -26.563,-1.762 -40.434,-5.199 L 548.59,693.48 c -9.25,-2.351 -18.512,-3.48 -27.692,-3.48 -17.347,0 -34.648,4.262 -51.988,12.66 -25.039,10.039 -40.98,28.121 -47.93,54.328 l -13.871,49.102 c -6.519,24.961 -1.949,46.18 13.871,63.519 14.25,18.871 31.559,30.391 51.95,34.653 3.48,0.347 6.761,0.738 9.84,1.129 l 55.429,11.519 c 3.832,1.18 7.5,2.149 10.981,2.891 6.519,1.179 13.09,1.758 19.609,1.758" /><path
         id="path20"
         style="fill:#94ba33;fill-opacity:1;fill-rule:evenodd;stroke:none"
         d="m 490.27,1130 c 15.429,0 32.351,-2.89 50.82,-8.67 21.531,-14.22 35,-29.42 40.43,-45.59 l 14.46,-39.84 c 6.52,-18.09 4.571,-36.599 -5.781,-55.47 -16.219,-18.828 -36.25,-30.59 -60.121,-35.231 L 476.41,934.262 c -36.18,-7.313 -64.109,-23.481 -83.711,-48.524 -20.039,-25.386 -25.82,-54.097 -17.347,-86.008 l 13.277,-49.691 c 8.09,-31.168 28.48,-55.039 61.211,-71.598 21.57,-10.39 45.82,-15.589 72.781,-15.589 11.52,0 23.277,0.976 35.231,2.886 l 58.32,15 c 4.18,1.172 7.887,2.114 10.976,2.891 6.872,1.961 14.024,2.891 21.332,2.891 14.641,0 30.969,-3.668 49.098,-10.969 23.473,-14.262 39.453,-32.93 47.934,-56.02 l 19.058,-53.672 c 10,-27.769 9.219,-52.968 -2.3,-75.66 C 745.352,462.5 723.199,444.57 695.859,436.48 l -60.66,-19.058 c -11.527,-3.473 -22.699,-5.192 -33.48,-5.192 -17.699,-0.39 -35.239,4.059 -52.539,13.282 -24.258,15.429 -42.379,36.558 -54.258,63.508 l -15.043,56.601 c -9.649,34.649 -31.168,60.469 -64.68,77.391 -23.871,11.949 -48.09,17.886 -72.777,17.886 -13.082,0 -26.524,-1.757 -40.434,-5.16 L 237.93,619.531 c -11.559,-2.691 -23.09,-4.019 -34.649,-4.019 -17.301,0 -34.453,3.238 -51.441,9.797 -24.61,15.781 -39.07,35.82 -43.289,60.043 l -9.2112,53.168 c -4.2187,26.128 2.1092,49.058 19.0582,68.671 18.832,22.34 42.692,36.438 71.563,42.188 l 60.66,12.101 c 39.301,8.129 68.91,24.848 88.91,50.239 19.688,25.043 25.629,51.601 17.93,79.691 l -11.563,42.77 c -5,18.44 -0.199,37.7 14.411,57.73 15.82,15 35.429,24.42 58.953,28.29 l 50.777,8.08 c 6.563,1.17 13.32,1.72 20.231,1.72" /><path
         id="path22"
         style="fill:#004166;fill-opacity:1;fill-rule:nonzero;stroke:none"
         d="m 2056.45,848.012 v -60 h -180.16 v -512.5 h -74.06 v 512.5 h -180.16 v 60 z m 133.71,-60 h -74.0703 v 60 h 74.0703 z m 0,-512.5 h -74.0703 v 420.469 h 74.0703 z" /><path
         id="path24"
         style="fill:#004166;fill-opacity:1;fill-rule:nonzero;stroke:none"
         d="m 2630.2,287.539 c -34.69,-8.051 -72.04,-12.027 -112.04,-12.027 -152.18,0 -228.28,72.726 -228.28,218.277 0,134.762 76.1,202.191 228.28,202.191 40,0 77.35,-4.031 112.04,-12.031 v -60.16 c -34.69,8.012 -69.38,12.031 -104.07,12.031 -108.12,0 -162.18,-47.34 -162.18,-142.031 0,-105.551 54.06,-158.277 162.18,-158.277 34.69,0 69.38,3.976 104.07,12.027 z" /><path
         id="path26"
         style="fill:#004166;fill-opacity:1;fill-rule:nonzero;stroke:none"
         d="m 3057.07,464.57 h -283.12 c 0,-86.05 54.21,-129.058 162.65,-129.058 37.07,0 74.14,3.976 111.25,12.027 v -60 c -37.11,-8.051 -82.19,-12.027 -135.31,-12.027 -141.8,0 -212.66,71.636 -212.66,215 0,136.949 67.11,205.468 201.41,205.468 128.63,0 180.55,-77.152 155.78,-231.41 z m -283.12,61.559 h 215.46 c 3.75,73.641 -29.64,110.473 -100.15,110.473 -72.11,0 -110.55,-36.832 -115.31,-110.473 z" /><path
         id="path28"
         style="fill:#004166;fill-opacity:1;fill-rule:nonzero;stroke:none"
         d="m 3153.12,455.66 h 200.309 v 60.1602 H 3153.12 Z" /><path
         id="path30"
         style="fill:#004166;fill-opacity:1;fill-rule:nonzero;stroke:none"
         d="m 3403.4,275.512 243.12,572.5 h 82.03 l 244.22,-572.5 h -78.12 l -76.1,180.148 H 3627.3 l 20.32,60.16 h 142.97 L 3684.96,771.129 3480.27,275.512 Z" /><path
         id="path32"
         style="fill:#004166;fill-opacity:1;fill-rule:nonzero;stroke:none"
         d="m 4042.77,275.512 h 74.0586 v 572.5 H 4042.77 Z" /></g></g></svg>